<svg width="17" height="28" viewBox="0 0 17 28" fill="none" xmlns="http://www.w3.org/2000/svg">
<path d="M9.26797 27.4541C8.8682 27.9335 8.1318 27.9335 7.73202 27.4541L0.868115 19.2238C0.324981 18.5726 0.788079 17.5833 1.63609 17.5833L3.49059 17.5833C4.04264 17.5833 4.49026 17.136 4.49059 16.5839L4.49941 1.62441C4.49974 1.07236 4.94736 0.625003 5.49941 0.625003L11.5 0.625003C12.0523 0.625003 12.5 1.07272 12.5 1.625L12.5 16.5833C12.5 17.1356 12.9477 17.5833 13.5 17.5833L15.3639 17.5833C16.2119 17.5833 16.675 18.5726 16.1319 19.2238L9.26797 27.4541Z" fill="#173EA5"/>
</svg>
